Coordinates
version=1
nRows=19
nColumns=24
inDegrees=yes

Units are S.I. units (second, meters, Newtons, ...)
Angles are in degrees.

endheader
time	pelvis_tilt	pelvis_list	pelvis_rotation	pelvis_tx	pelvis_ty	pelvis_tz	hip_flexion_r	hip_adduction_r	hip_rotation_r	knee_angle_r	ankle_angle_r	subtalar_angle_r	mtp_angle_r	hip_flexion_l	hip_adduction_l	hip_rotation_l	knee_angle_l	ankle_angle_l	subtalar_angle_l	mtp_angle_l	lumbar_extension	lumbar_bending	lumbar_rotation
      1.62500000	      4.14256804	      5.64170599	     -3.11002495	      0.46547581	      1.07309298	      0.33295628	      9.14560037	     -8.30813706	     -0.08910097	    -61.70295564	     -1.30872485	    -11.77477085	     11.33764422	      0.24972841	     11.84564979	     -2.21640722	     -2.34387350	     -5.36533923	    -12.09049904	      3.07122953	      2.67653012	     -3.37182604	      1.35357003
      1.62916667	      4.21326267	      5.69195026	     -2.95954484	      0.47003883	      1.07358402	      0.33273093	      9.61865780	     -8.31118837	      0.02692365	    -61.53169238	     -0.56559108	    -11.85743913	     11.20814599	     -0.19300743	     11.92151098	     -2.16873670	     -2.19275340	     -5.16340784	    -11.93573074	      3.00871335	      2.56544437	     -3.49909516	      1.11010463
      1.63333333	      4.25045779	      5.74491292	     -2.84377146	      0.47459056	      1.07399595	      0.33252526	     10.13307621	     -8.31213780	      0.19227126	    -61.31053438	     -0.07218265	    -11.87165227	     11.06382271	     -0.61073544	     11.99812619	     -2.06012273	     -2.01318594	     -5.02528082	    -11.76283588	      2.93739589	      2.49200440	     -3.58682039	      0.87822853
      1.63750000	      4.27332891	      5.79173860	     -2.74631637	      0.47916068	      1.07438234	      0.33237839	     10.65621775	     -8.29656804	      0.38618101	    -61.02574327	      0.11864606	    -11.91733760	     11.02884478	     -1.02276214	     12.06193426	     -1.93109616	     -1.81077652	     -4.99118690	    -11.66732750	      2.92136223	      2.40920046	     -3.61430607	      0.81445597
      1.64166667	      4.29762590	      5.84330368	     -2.65400849	      0.48371261	      1.07475061	      0.33224394	     11.17059068	     -8.28399709	      0.57630129	    -60.71634158	      0.48138223	    -12.00449502	     10.98634986	     -1.44142824	     12.13116205	     -1.78926730	     -1.59779428	     -4.91568396	    -11.56909472	      2.90122711	      2.33830757	     -3.68434456	      0.73175713
      1.64583333	      4.34196717	      5.90027853	     -2.48293141	      0.48818622	      1.07512632	      0.33199459	     11.63784629	     -8.29586586	      0.66016917	    -60.39560808	      1.20307369	    -12.04300616	     10.85591887	     -1.85798502	     12.21009875	     -1.71982992	     -1.44074785	     -4.72591073	    -11.45198533	      2.83208235	      2.26464815	     -3.80377015	      0.49128234
      1.65000000	      4.36836092	      5.96619807	     -2.39103782	      0.49267926	      1.07543594	      0.33181066	     12.13918126	     -8.30861119	      0.84057134	    -60.02890074	      1.58440679	    -12.02626994	     10.73967505	     -2.27942935	     12.30101358	     -1.56402309	     -1.22191945	     -4.63629433	    -11.31483069	      2.76961236	      2.22386256	     -3.87655150	      0.30118112
      1.65416667	      4.38381315	      6.01658207	     -2.27959459	      0.49720185	      1.07573582	      0.33167449	     12.62660958	     -8.29632806	      0.99420024	    -59.60466005	      1.94827567	    -12.04639634	     10.64257345	     -2.69085434	     12.36607215	     -1.43981462	     -1.00550381	     -4.55536243	    -11.21990751	      2.71636931	      2.16713444	     -3.94748479	      0.15354398
      1.65833333	      4.38009032	      6.06969283	     -2.17108737	      0.50171886	      1.07598684	      0.33153577	     13.12776813	     -8.28797401	      1.14404496	    -59.14664233	      2.28926682	    -12.06802774	     10.56049423	     -3.08272407	     12.43352497	     -1.31328584	     -0.78565267	     -4.48079187	    -11.14056787	      2.67050569	      2.12550258	     -4.01969106	      0.03017888
      1.66250000	      4.36276226	      6.09664241	     -2.04416667	      0.50623961	      1.07622439	      0.33147051	     13.61826425	     -8.24114660	      1.28406938	    -58.62110644	      2.48790818	    -12.08807262	     10.52616039	     -3.45528789	     12.46127467	     -1.24074375	     -0.58167648	     -4.43886947	    -11.09544838	      2.65145056	      2.05482727	     -4.07856435	     -0.02558854
      1.66666667	      4.36739984	      6.16202259	     -1.90013617	      0.51070503	      1.07644055	      0.33126348	     14.08209726	     -8.25966402	      1.37644907	    -58.11265325	      3.12178846	    -12.07354248	     10.36709049	     -3.85701310	     12.54314714	     -1.08019467	     -0.36327196	     -4.29277044	    -11.03153160	      2.55589807	      2.04167987	     -4.19613085	     -0.27950871
      1.67083333	      4.34317782	      6.20844468	     -1.81281758	      0.51520489	      1.07658939	      0.33120008	     14.57442086	     -8.23552193	      1.54253889	    -57.52712972	      3.24854319	    -12.08048380	     10.33393953	     -4.23157112	     12.59784499	     -0.97990304	     -0.12857560	     -4.27266947	    -10.97336302	      2.53703628	      1.98611626	     -4.24607363	     -0.32986093
      1.67500000	      4.35201748	      6.27995184	     -1.73227964	      0.51969536	      1.07674725	      0.33104165	     15.02661046	     -8.25304480	      1.68497843	    -56.93814296	      3.61140526	    -12.11220511	     10.24756677	     -4.65443713	     12.69170868	     -0.80395144	      0.13487091	     -4.19818564	    -10.91092799	      2.48437421	      2.02094311	     -4.33042683	     -0.46000234
      1.67916667	      4.30326185	      6.31844328	     -1.61652990	      0.52418085	      1.07683805	      0.33100550	     15.51109579	     -8.21895830	      1.81307052	    -56.27384148	      3.77550478	    -12.12589946	     10.21420496	     -4.99615828	     12.72743864	     -0.73817834	      0.34978154	     -4.16274245	    -10.88273021	      2.46409686	      1.94881158	     -4.39726027	     -0.51149119
      1.68333333	      4.27497592	      6.36681066	     -1.53463978	      0.52866931	      1.07691219	      0.33095427	     15.97296785	     -8.19750982	      1.95574246	    -55.58916997	      3.99709299	    -12.15696912	     10.17592464	     -5.37380905	     12.78192708	     -0.61654708	      0.60349014	     -4.11503762	    -10.83874474	      2.44080278	      1.93307287	     -4.47026227	     -0.57469456
      1.68750000	      4.24219529	      6.42110986	     -1.44745918	      0.53316418	      1.07695853	      0.33087639	     16.42410755	     -8.18858645	      2.08271135	    -54.87340873	      4.23215157	    -12.19191365	     10.13477715	     -5.74672701	     12.84388231	     -0.49524609	      0.85002737	     -4.05985708	    -10.80251773	      2.41512585	      1.92913878	     -4.54697941	     -0.64501779
      1.69166667	      4.20563044	      6.47768104	     -1.36117387	      0.53762492	      1.07695947	      0.33078907	     16.87194736	     -8.18356110	      2.19774160	    -54.12670926	      4.44330174	    -12.22400408	     10.09621314	     -6.11099870	     12.90814289	     -0.38685497	      1.09430489	     -4.00515393	    -10.77310162	      2.39074323	      1.92048744	     -4.62143444	     -0.71289100
      1.69583333	      4.18858917	      6.54748729	     -1.26860340	      0.54210509	      1.07695962	      0.33061645	     17.28346889	     -8.20754466	      2.27940395	    -53.36195412	      4.77779817	    -12.27639975	     10.00262124	     -6.51054085	     12.99296941	     -0.18345283	      1.36060513	     -3.90427860	    -10.75170564	      2.32846156	      2.01708296	     -4.70110780	     -0.88033630
      1.70000000	      4.12458006	      6.59948011	     -1.16744207	      0.54653655	      1.07688958	      0.33056940	     17.72962383	     -8.19531132	      2.37939706	    -52.53642197	      4.88941282	    -12.29206557	      9.96805186	     -6.82980341	     13.04254192	     -0.13483522	      1.56900911	     -3.86986762	    -10.73877280	      2.30571838	      1.94493473	     -4.77686422	     -0.93624830
